<?xml version="1.0"?>
<svg xmlns="http://www.w3.org/2000/svg" width="300" height="300" version="1.1">
<path d="M 0 0 L 0 300 300 300 300 0 z" fill="none" stroke="#000000" stroke-width="1" />
<path d="M 150.0 150.0" fill="none" stroke="#E5E519" stroke-width="2" />
<path d="M 140.0 140.0 L 140.0 160.0" fill="none" stroke="#E5E519" stroke-width="2" />
<path d="M 140.0 160.0" fill="none" stroke="#E5E519" stroke-width="2" />
<path d="M 140.0 140.0" fill="none" stroke="#E5E519" stroke-width="2" />
<path d="M 140.0 140.0 L 160.0 140.0" fill="none" stroke="#E5E519" stroke-width="2" />
<path d="M 160.0 140.0" fill="none" stroke="#E5E519" stroke-width="2" />
<path d="M 140.0 150.0 L 160.0 150.0" fill="none" stroke="#E5E519" stroke-width="2" />
<path d="M 160.0 150.0" fill="none" stroke="#E5E519" stroke-width="2" />
<path d="M 140.0 160.0 L 160.0 160.0" fill="none" stroke="#E5E519" stroke-width="2" />
<path d="M 160.0 160.0" fill="none" stroke="#CCCC33" stroke-width="4" />
<path d="M 130.0 130.0 L 130.0 170.0" fill="none" stroke="#CCCC33" stroke-width="4" />
<path d="M 130.0 170.0" fill="none" stroke="#CCCC33" stroke-width="4" />
<path d="M 130.0 130.0" fill="none" stroke="#CCCC33" stroke-width="4" />
<path d="M 130.0 130.0 L 170.0 130.0" fill="none" stroke="#CCCC33" stroke-width="4" />
<path d="M 170.0 130.0" fill="none" stroke="#CCCC33" stroke-width="4" />
<path d="M 130.0 150.0 L 170.0 150.0" fill="none" stroke="#CCCC33" stroke-width="4" />
<path d="M 170.0 150.0" fill="none" stroke="#CCCC33" stroke-width="4" />
<path d="M 130.0 170.0 L 170.0 170.0" fill="none" stroke="#CCCC33" stroke-width="4" />
<path d="M 170.0 170.0" fill="none" stroke="#B2B24C" stroke-width="6" />
<path d="M 120.0 120.0 L 120.0 180.0" fill="none" stroke="#B2B24C" stroke-width="6" />
<path d="M 120.0 180.0" fill="none" stroke="#B2B24C" stroke-width="6" />
<path d="M 120.0 120.0" fill="none" stroke="#B2B24C" stroke-width="6" />
<path d="M 120.0 120.0 L 180.0 120.0" fill="none" stroke="#B2B24C" stroke-width="6" />
<path d="M 180.0 120.0" fill="none" stroke="#B2B24C" stroke-width="6" />
<path d="M 120.0 150.0 L 180.0 150.0" fill="none" stroke="#B2B24C" stroke-width="6" />
<path d="M 180.0 150.0" fill="none" stroke="#B2B24C" stroke-width="6" />
<path d="M 120.0 180.0 L 180.0 180.0" fill="none" stroke="#B2B24C" stroke-width="6" />
<path d="M 180.0 180.0" fill="none" stroke="#999966" stroke-width="8" />
<path d="M 110.0 110.0 L 110.0 190.0" fill="none" stroke="#999966" stroke-width="8" />
<path d="M 110.0 190.0" fill="none" stroke="#999966" stroke-width="8" />
<path d="M 110.0 110.0" fill="none" stroke="#999966" stroke-width="8" />
<path d="M 110.0 110.0 L 190.0 110.0" fill="none" stroke="#999966" stroke-width="8" />
<path d="M 190.0 110.0" fill="none" stroke="#999966" stroke-width="8" />
<path d="M 110.0 150.0 L 190.0 150.0" fill="none" stroke="#999966" stroke-width="8" />
<path d="M 190.0 150.0" fill="none" stroke="#999966" stroke-width="8" />
<path d="M 110.0 190.0 L 190.0 190.0" fill="none" stroke="#999966" stroke-width="8" />
<path d="M 190.0 190.0" fill="none" stroke="#7F7F7F" stroke-width="10" />
<path d="M 100.0 100.0 L 100.0 200.0" fill="none" stroke="#7F7F7F" stroke-width="10" />
<path d="M 100.0 200.0" fill="none" stroke="#7F7F7F" stroke-width="10" />
<path d="M 100.0 100.0" fill="none" stroke="#7F7F7F" stroke-width="10" />
<path d="M 100.0 100.0 L 200.0 100.0" fill="none" stroke="#7F7F7F" stroke-width="10" />
<path d="M 200.0 100.0" fill="none" stroke="#7F7F7F" stroke-width="10" />
<path d="M 100.0 150.0 L 200.0 150.0" fill="none" stroke="#7F7F7F" stroke-width="10" />
<path d="M 200.0 150.0" fill="none" stroke="#7F7F7F" stroke-width="10" />
<path d="M 100.0 200.0 L 200.0 200.0" fill="none" stroke="#7F7F7F" stroke-width="10" />
<path d="M 200.0 200.0" fill="none" stroke="#666699" stroke-width="12" />
<path d="M 90.0 90.0 L 90.00000000000001 210.0" fill="none" stroke="#666699" stroke-width="12" />
<path d="M 90.00000000000001 210.0" fill="none" stroke="#666699" stroke-width="12" />
<path d="M 90.0 90.0" fill="none" stroke="#666699" stroke-width="12" />
<path d="M 90.0 90.0 L 210.0 90.0" fill="none" stroke="#666699" stroke-width="12" />
<path d="M 210.0 90.0" fill="none" stroke="#666699" stroke-width="12" />
<path d="M 90.0 150.0 L 210.0 150.0" fill="none" stroke="#666699" stroke-width="12" />
<path d="M 210.0 150.0" fill="none" stroke="#666699" stroke-width="12" />
<path d="M 90.0 210.0 L 210.0 210.0" fill="none" stroke="#666699" stroke-width="12" />
<path d="M 210.0 210.0" fill="none" stroke="#4C4CB2" stroke-width="14" />
<path d="M 80.0 80.0 L 80.00000000000001 220.0" fill="none" stroke="#4C4CB2" stroke-width="14" />
<path d="M 80.00000000000001 220.0" fill="none" stroke="#4C4CB2" stroke-width="14" />
<path d="M 80.0 80.0" fill="none" stroke="#4C4CB2" stroke-width="14" />
<path d="M 80.0 80.0 L 220.0 80.0" fill="none" stroke="#4C4CB2" stroke-width="14" />
<path d="M 220.0 80.0" fill="none" stroke="#4C4CB2" stroke-width="14" />
<path d="M 80.0 150.0 L 220.0 150.0" fill="none" stroke="#4C4CB2" stroke-width="14" />
<path d="M 220.0 150.0" fill="none" stroke="#4C4CB2" stroke-width="14" />
<path d="M 80.0 220.0 L 220.0 220.0" fill="none" stroke="#4C4CB2" stroke-width="14" />
<path d="M 220.0 220.0" fill="none" stroke="#3232CC" stroke-width="16" />
<path d="M 70.0 70.0 L 70.00000000000001 230.0" fill="none" stroke="#3232CC" stroke-width="16" />
<path d="M 70.00000000000001 230.0" fill="none" stroke="#3232CC" stroke-width="16" />
<path d="M 70.0 70.0" fill="none" stroke="#3232CC" stroke-width="16" />
<path d="M 70.0 70.0 L 230.0 70.0" fill="none" stroke="#3232CC" stroke-width="16" />
<path d="M 230.0 70.0" fill="none" stroke="#3232CC" stroke-width="16" />
<path d="M 70.0 150.0 L 230.0 150.0" fill="none" stroke="#3232CC" stroke-width="16" />
<path d="M 230.0 150.0" fill="none" stroke="#3232CC" stroke-width="16" />
<path d="M 70.0 230.0 L 230.0 230.0" fill="none" stroke="#3232CC" stroke-width="16" />
<path d="M 230.0 230.0" fill="none" stroke="#1919E5" stroke-width="18" />
<path d="M 60.0 60.0 L 60.000000000000014 240.0" fill="none" stroke="#1919E5" stroke-width="18" />
<path d="M 60.000000000000014 240.0" fill="none" stroke="#1919E5" stroke-width="18" />
<path d="M 60.0 60.0" fill="none" stroke="#1919E5" stroke-width="18" />
<path d="M 60.0 60.0 L 240.0 60.0" fill="none" stroke="#1919E5" stroke-width="18" />
<path d="M 240.0 60.0" fill="none" stroke="#1919E5" stroke-width="18" />
<path d="M 60.0 150.0 L 240.0 150.0" fill="none" stroke="#1919E5" stroke-width="18" />
<path d="M 240.0 150.0" fill="none" stroke="#1919E5" stroke-width="18" />
<path d="M 60.0 240.0 L 240.0 240.0" fill="none" stroke="#1919E5" stroke-width="18" />
<path d="M 240.0 240.0" fill="none" stroke="#0000FF" stroke-width="20" />
<path d="M 50.0 50.0 L 50.000000000000014 250.0" fill="none" stroke="#0000FF" stroke-width="20" />
<path d="M 50.000000000000014 250.0" fill="none" stroke="#0000FF" stroke-width="20" />
<path d="M 50.0 50.0" fill="none" stroke="#0000FF" stroke-width="20" />
<path d="M 50.0 50.0 L 250.0 50.0" fill="none" stroke="#0000FF" stroke-width="20" />
<path d="M 250.0 50.0" fill="none" stroke="#0000FF" stroke-width="20" />
<path d="M 50.0 150.0 L 250.0 150.0" fill="none" stroke="#0000FF" stroke-width="20" />
<path d="M 250.0 150.0" fill="none" stroke="#0000FF" stroke-width="20" />
<path d="M 50.0 250.0 L 250.0 250.0" fill="none" stroke="#0000FF" stroke-width="20" />
<path d="M 250.0 250.0" fill="none" stroke="#000000" stroke-width="20" />
<path d="M 50.0 50.0 L 50.000000000000014 250.0" fill="none" stroke="#000000" stroke-width="20" />
<path d="M 50.000000000000014 250.0" fill="none" stroke="#000000" stroke-width="20" />
<path d="M 50.0 50.0" fill="none" stroke="#000000" stroke-width="20" />
<path d="M 50.0 50.0 L 250.0 50.0" fill="none" stroke="#000000" stroke-width="20" />
<path d="M 250.0 50.0" fill="none" stroke="#000000" stroke-width="20" />
<path d="M 50.0 150.0 L 250.0 150.0" fill="none" stroke="#000000" stroke-width="20" />
<path d="M 250.0 150.0" fill="none" stroke="#000000" stroke-width="20" />
<path d="M 50.0 250.0 L 250.0 250.0" fill="none" stroke="#000000" stroke-width="20" />
<path d="M 250.0 250.0 L 250.0 270.0 L 270.0 250.0 L 250.0 230.0 L 250.0 250.0" fill="CCFFFF" stroke="#228b22" stroke-width="4" />
</svg>
