<?xml version="1.0"?>
<svg xmlns="http://www.w3.org/2000/svg" width="300" height="300" version="1.1">
<path d="M 0 0 L 0 300 300 300 300 0 z" fill="none" stroke="#000000" stroke-width="1" />
<path d="M 150.0 150.0" fill="none" stroke="#0000FF" stroke-width="2" />
<path d="M 150.0 120.0 L 150.2 120.0" fill="none" stroke="#00FF00" stroke-width="1" />
<path d="M 150.2 120.0 L 150.59945181390182 120.02093438249717" fill="none" stroke="#7F7F7F" stroke-width="1" />
<path d="M 150.59945181390182 120.02093438249717 L 150.99726057204913 120.06274576780423" fill="none" stroke="#00FF00" stroke-width="2" />
<path d="M 150.99726057204913 120.06274576780423 L 151.5898735764062 120.15660644682836" fill="none" stroke="#AA54AA" stroke-width="1" />
<path d="M 151.5898735764062 120.15660644682836 L 152.1767621368465 120.28135346131901" fill="none" stroke="#55AA55" stroke-width="2" />
<path d="M 152.1767621368465 120.28135346131901 L 152.75631763261993 120.43664488838053" fill="none" stroke="#00FF00" stroke-width="3" />
<path d="M 152.75631763261993 120.43664488838053 L 153.51716284565606 120.68385848388048" fill="none" stroke="#BF3FBF" stroke-width="1" />
<path d="M 153.51716284565606 120.68385848388048 L 154.2640271868538 120.97055284351673" fill="none" stroke="#7F7F7F" stroke-width="2" />
<path d="M 154.2640271868538 120.97055284351673 L 154.9948635529679 121.29594215797736" fill="none" stroke="#3FBF3F" stroke-width="3" />
<path d="M 154.9948635529679 121.29594215797736 L 155.70766877231858 121.65913455776901" fill="none" stroke="#00FF00" stroke-width="4" />
<path d="M 155.70766877231858 121.65913455776901 L 156.57369417610303 122.15913455776901" fill="none" stroke="#CC32CC" stroke-width="1" />
<path d="M 156.57369417610303 122.15913455776901 L 157.41236474404846 122.70377359278403" fill="none" stroke="#996699" stroke-width="2" />
<path d="M 157.41236474404846 122.70377359278403 L 158.22138173842342 123.29155884507651" fill="none" stroke="#669966" stroke-width="3" />
<path d="M 158.22138173842342 123.29155884507651 L 158.99852769988038 123.92087923612634" fill="none" stroke="#32CC32" stroke-width="4" />
<path d="M 158.99852769988038 123.92087923612634 L 159.74167252535779 124.5900098424852" fill="none" stroke="#00FF00" stroke-width="5" />
<path d="M 159.74167252535779 124.5900098424852 L 160.59020066278165 125.43853797990906" fill="none" stroke="#D42AD4" stroke-width="1" />
<path d="M 160.59020066278165 125.43853797990906 L 161.39315739041228 126.33031177048193" fill="none" stroke="#AA54AA" stroke-width="2" />
<path d="M 161.39315739041228 126.33031177048193 L 162.1483418596721 127.26288692423029" fill="none" stroke="#7F7F7F" stroke-width="3" />
<path d="M 162.1483418596721 127.26288692423029 L 162.85368416242306 128.23370731748022" fill="none" stroke="#55AA55" stroke-width="4" />
<path d="M 162.85368416242306 128.23370731748022 L 163.5072510044411 129.24011199901474" fill="none" stroke="#2AD42A" stroke-width="5" />
<path d="M 163.5072510044411 129.24011199901474 L 164.10725100444108 130.27934248355606" fill="none" stroke="#00FF00" stroke-width="6" />
<path d="M 164.10725100444108 130.27934248355606 L 164.74283770407644 131.5267516174198" fill="none" stroke="#DA24DA" stroke-width="1" />
<path d="M 164.74283770407644 131.5267516174198 L 165.31226900438256 132.80571525811942" fill="none" stroke="#B648B6" stroke-width="2" />
<path d="M 165.31226900438256 132.80571525811942 L 165.81398413374598 134.1127278552155" fill="none" stroke="#916D91" stroke-width="3" />
<path d="M 165.81398413374598 134.1127278552155 L 166.2466079258709 135.44420697802872" fill="none" stroke="#6D916D" stroke-width="4" />
<path d="M 166.2466079258709 135.44420697802872 L 166.60895458901444 136.79650313483342" fill="none" stroke="#48B648" stroke-width="5" />
<path d="M 166.60895458901444 136.79650313483342 L 166.9000309561593 138.16590977586074" fill="none" stroke="#24DA24" stroke-width="6" />
<path d="M 166.9000309561593 138.16590977586074 L 167.11903920721562 139.54867345269395" fill="none" stroke="#00FF00" stroke-width="7" />
<path d="M 167.11903920721562 139.54867345269395 L 167.28628474844388 141.13990848528317" fill="none" stroke="#DF1FDF" stroke-width="1" />
<path d="M 167.28628474844388 141.13990848528317 L 167.3700222784326 142.73771574089048" fill="none" stroke="#BF3FBF" stroke-width="2" />
<path d="M 167.3700222784326 142.73771574089048 L 167.3700222784326 144.33771574089047" fill="none" stroke="#9F5F9F" stroke-width="3" />
<path d="M 167.3700222784326 144.33771574089047 L 167.28628474844388 145.93552299649778" fill="none" stroke="#7F7F7F" stroke-width="4" />
<path d="M 167.28628474844388 145.93552299649778 L 167.11903920721562 147.526758029087" fill="none" stroke="#5F9F5F" stroke-width="5" />
<path d="M 167.11903920721562 147.526758029087 L 166.86874406315124 149.10705937403924" fill="none" stroke="#3FBF3F" stroke-width="6" />
<path d="M 166.86874406315124 149.10705937403924 L 166.53608535784284 150.67209553521332" fill="none" stroke="#1FDF1F" stroke-width="7" />
<path d="M 166.53608535784284 150.67209553521332 L 166.1219748856788 152.21757685727582" fill="none" stroke="#00FF00" stroke-width="8" />
<path d="M 166.1219748856788 152.21757685727582 L 165.5657442958039 153.9294785866071" fill="none" stroke="#E21CE2" stroke-width="1" />
<path d="M 165.5657442958039 153.9294785866071 L 164.92068198662236 155.60992335430205" fill="none" stroke="#C638C6" stroke-width="2" />
<path d="M 164.92068198662236 155.60992335430205 L 164.1885560290859 157.25430517805873" fill="none" stroke="#AA54AA" stroke-width="3" />
<path d="M 164.1885560290859 157.25430517805873 L 163.3713731295547 158.8581169215978" fill="none" stroke="#8D718D" stroke-width="4" />
<path d="M 163.3713731295547 158.8581169215978 L 162.4713731295547 160.4169626484098" fill="none" stroke="#718D71" stroke-width="5" />
<path d="M 162.4713731295547 160.4169626484098 L 161.49102286652766 161.92656967071156" fill="none" stroke="#55AA55" stroke-width="6" />
<path d="M 161.49102286652766 161.92656967071156 L 160.43300941240122 163.38280026058646" fill="none" stroke="#38C638" stroke-width="7" />
<path d="M 160.43300941240122 163.38280026058646 L 159.30023270851152 164.781662991209" fill="none" stroke="#1CE21C" stroke-width="8" />
<path d="M 159.30023270851152 164.781662991209 L 158.09579761706556 166.1193236770683" fill="none" stroke="#00FF00" stroke-width="9" />
<path d="M 158.09579761706556 166.1193236770683 L 156.68158405469245 167.53353723944142" fill="none" stroke="#E519E5" stroke-width="1" />
<path d="M 156.68158405469245 167.53353723944142 L 155.19529440373765 168.87179845215914" fill="none" stroke="#CC32CC" stroke-width="2" />
<path d="M 155.19529440373765 168.87179845215914 L 153.64100248082372 170.1304392342588" fill="none" stroke="#B24CB2" stroke-width="3" />
<path d="M 153.64100248082372 170.1304392342588 L 152.02296849207383 171.30600973884376" fill="none" stroke="#996699" stroke-width="4" />
<path d="M 152.02296849207383 171.30600973884376 L 150.34562735618297 172.3952878088738" fill="none" stroke="#7F7F7F" stroke-width="5" />
<path d="M 150.34562735618297 172.3952878088738 L 148.6135765486141 173.3952878088738" fill="none" stroke="#669966" stroke-width="6" />
<path d="M 148.6135765486141 173.3952878088738 L 146.83156350023737 174.3032688083529" fill="none" stroke="#4CB24C" stroke-width="7" />
<path d="M 146.83156350023737 174.3032688083529 L 145.00447258495217 175.1167420945045" fill="none" stroke="#32CC32" stroke-width="8" />
<path d="M 145.00447258495217 175.1167420945045 L 143.13731173195777 175.8334779935951" fill="none" stroke="#19E519" stroke-width="9" />
<path d="M 143.13731173195777 175.8334779935951 L 141.23519869936746 176.45151198234498" fill="none" stroke="#00FF00" stroke-width="10" />
<path d="M 141.23519869936746 176.45151198234498 L 139.1101618815315 177.02091388157052" fill="none" stroke="#E717E7" stroke-width="1" />
<path d="M 139.1101618815315 177.02091388157052 L 136.95823715991713 177.4783196013696" fill="none" stroke="#D02ED0" stroke-width="2" />
<path d="M 136.95823715991713 177.4783196013696 L 134.78532281060782 177.8224754244581" fill="none" stroke="#B945B9" stroke-width="3" />
<path d="M 134.78532281060782 177.8224754244581 L 132.59737464079763 178.05243804364693" fill="none" stroke="#A25CA2" stroke-width="4" />
<path d="M 132.59737464079763 178.05243804364693 L 130.40038966433755 178.1675771473814" fill="none" stroke="#8B738B" stroke-width="5" />
<path d="M 130.40038966433755 178.1675771473814 L 128.20038966433756 178.1675771473814" fill="none" stroke="#738B73" stroke-width="6" />
<path d="M 128.20038966433756 178.1675771473814 L 126.0034046878775 178.05243804364693" fill="none" stroke="#5CA25C" stroke-width="7" />
<path d="M 126.0034046878775 178.05243804364693 L 123.81545651806731 177.8224754244581" fill="none" stroke="#45B945" stroke-width="8" />
<path d="M 123.81545651806731 177.8224754244581 L 121.642542168758 177.4783196013696" fill="none" stroke="#2ED02E" stroke-width="9" />
<path d="M 121.642542168758 177.4783196013696 L 119.49061744714362 177.02091388157052" fill="none" stroke="#17E717" stroke-width="10" />
<path d="M 119.49061744714362 177.02091388157052 L 117.36558062930767 176.45151198234498" fill="none" stroke="#00FF00" stroke-width="11" />
<path d="M 117.36558062930767 176.45151198234498 L 115.0830449901993 175.7098711958451" fill="none" stroke="#E915E9" stroke-width="1" />
<path d="M 115.0830449901993 175.7098711958451 L 112.842451966606 174.84978811693637" fill="none" stroke="#D42AD4" stroke-width="2" />
<path d="M 112.842451966606 174.84978811693637 L 110.64994286826376 173.87362017355446" fill="none" stroke="#BF3FBF" stroke-width="3" />
<path d="M 110.64994286826376 173.87362017355446 L 108.51152721021168 172.78404297417956" fill="none" stroke="#AA54AA" stroke-width="4" />
<path d="M 108.51152721021168 172.78404297417956 L 106.43306624112903 171.58404297417957" fill="none" stroke="#946A94" stroke-width="5" />
<path d="M 106.43306624112903 171.58404297417957 L 104.42025687806 170.2769092901435" fill="none" stroke="#7F7F7F" stroke-width="6" />
<path d="M 104.42025687806 170.2769092901435 L 102.47861609156013 168.86622468464157" fill="none" stroke="#6A946A" stroke-width="7" />
<path d="M 102.47861609156013 168.86622468464157 L 100.6134657840634 167.35585574612196" fill="none" stroke="#55AA55" stroke-width="8" />
<path d="M 100.6134657840634 167.35585574612196 L 98.82991820291765 165.7499422908607" fill="none" stroke="#3FBF3F" stroke-width="9" />
<path d="M 98.82991820291765 165.7499422908607 L 97.13286192806994 164.052886016013" fill="none" stroke="#2AD42A" stroke-width="10" />
<path d="M 97.13286192806994 164.052886016013 L 95.52694847280868 162.26933843486725" fill="none" stroke="#15E915" stroke-width="11" />
<path d="M 95.52694847280868 162.26933843486725 L 94.01657953428908 160.40418812737053" fill="none" stroke="#00FF00" stroke-width="12" />
<path d="M 94.01657953428908 160.40418812737053 L 92.48833787832865 158.30074394199568" fill="none" stroke="#EB13EB" stroke-width="1" />
<path d="M 92.48833787832865 158.30074394199568 L 91.07227638728958 156.12020046533758" fill="none" stroke="#D727D7" stroke-width="2" />
<path d="M 91.07227638728958 156.12020046533758 L 89.77227638728958 153.86853441549803" fill="none" stroke="#C43AC4" stroke-width="3" />
<path d="M 89.77227638728958 153.86853441549803 L 88.59190108796676 151.55191745260828" fill="none" stroke="#B04EB0" stroke-width="4" />
<path d="M 88.59190108796676 151.55191745260828 L 87.53438581596969 149.17669926273751" fill="none" stroke="#9C629C" stroke-width="5" />
<path d="M 87.53438581596969 149.17669926273751 L 86.6026291471519 146.7493901538448" fill="none" stroke="#897589" stroke-width="6" />
<path d="M 86.6026291471519 146.7493901538448 L 85.79918496177704 144.2766432114774" fill="none" stroke="#758975" stroke-width="7" />
<path d="M 85.79918496177704 144.2766432114774 L 85.12625544451049 141.76523606312583" fill="none" stroke="#629C62" stroke-width="8" />
<path d="M 85.12625544451049 141.76523606312583 L 84.58568504838432 139.22205230121793" fill="none" stroke="#4EB04E" stroke-width="9" />
<path d="M 84.58568504838432 139.22205230121793 L 84.17895543927972 136.65406261567057" fill="none" stroke="#3AC43A" stroke-width="10" />
<path d="M 84.17895543927972 136.65406261567057 L 83.90718143478382 134.06830568771306" fill="none" stroke="#27D727" stroke-width="11" />
<path d="M 83.90718143478382 134.06830568771306 L 83.77110794855217 131.47186889735116" fill="none" stroke="#13EB13" stroke-width="12" />
<path d="M 83.77110794855217 131.47186889735116 L 83.77110794855217 128.87186889735116" fill="none" stroke="#00FF00" stroke-width="13" />
<path d="M 83.77110794855217 128.87186889735116 L 83.91764862603242 126.07570620003835" fill="none" stroke="#EC12EC" stroke-width="1" />
<path d="M 83.91764862603242 126.07570620003835 L 84.21032832318184 123.29104489300718" fill="none" stroke="#DA24DA" stroke-width="2" />
<path d="M 84.21032832318184 123.29104489300718 L 84.64834482529449 120.5255175393408" fill="none" stroke="#C836C8" stroke-width="3" />
<path d="M 84.64834482529449 120.5255175393408 L 85.23049755958421 117.78670425728615" fill="none" stroke="#B648B6" stroke-width="4" />
<path d="M 85.23049755958421 117.78670425728615 L 85.95519088587126 115.08211194367675" fill="none" stroke="#A35BA3" stroke-width="5" />
<path d="M 85.95519088587126 115.08211194367675 L 86.82043847012112 112.41915369805032" fill="none" stroke="#916D91" stroke-width="6" />
<path d="M 86.82043847012112 112.41915369805032 L 87.82386872884796 109.80512850385816" fill="none" stroke="#7F7F7F" stroke-width="7" />
<path d="M 87.82386872884796 109.80512850385816 L 88.9627313294602 107.24720122245887" fill="none" stroke="#6D916D" stroke-width="8" />
<path d="M 88.9627313294602 107.24720122245887 L 90.23390472873093 104.75238295473144" fill="none" stroke="#5BA35B" stroke-width="9" />
<path d="M 90.23390472873093 104.75238295473144 L 91.63390472873094 102.32751182413502" fill="none" stroke="#48B648" stroke-width="10" />
<path d="M 91.63390472873094 102.32751182413502 L 93.15889402677301 99.97923423388782" fill="none" stroke="#36C836" stroke-width="11" />
<path d="M 93.15889402677301 99.97923423388782 L 94.80469273319194 97.71398664963797" fill="none" stroke="#24DA24" stroke-width="12" />
<path d="M 94.80469273319194 97.71398664963797 L 96.56678982813149 95.53797795755845" fill="none" stroke="#12EC12" stroke-width="13" />
<path d="M 96.56678982813149 95.53797795755845 L 98.4403555259363 93.45717244622175" fill="none" stroke="#00FF00" stroke-width="14" />
<path d="M 98.4403555259363 93.45717244622175 L 100.56167586949594 91.3358521026621" fill="none" stroke="#EE10EE" stroke-width="1" />
<path d="M 100.56167586949594 91.3358521026621 L 102.79111034592812 89.32846028358553" fill="none" stroke="#DD21DD" stroke-width="2" />
<path d="M 102.79111034592812 89.32846028358553 L 105.12254823029903 87.44049911043602" fill="none" stroke="#CC32CC" stroke-width="3" />
<path d="M 105.12254823029903 87.44049911043602 L 107.54959921342387 85.6771433535586" fill="none" stroke="#BB43BB" stroke-width="4" />
<path d="M 107.54959921342387 85.6771433535586 L 110.06561091726014 84.04322624851352" fill="none" stroke="#AA54AA" stroke-width="5" />
<path d="M 110.06561091726014 84.04322624851352 L 112.66368712861346 82.54322624851352" fill="none" stroke="#996699" stroke-width="6" />
<path d="M 112.66368712861346 82.54322624851352 L 115.33670670117857 81.18125474929488" fill="none" stroke="#887788" stroke-width="7" />
<path d="M 115.33670670117857 81.18125474929488 L 118.07734307410638 79.96104482006749" fill="none" stroke="#778877" stroke-width="8" />
<path d="M 118.07734307410638 79.96104482006749 L 120.87808435359798 78.88594097143158" fill="none" stroke="#669966" stroke-width="9" />
<path d="M 120.87808435359798 78.88594097143158 L 123.73125390248345 77.95888998830674" fill="none" stroke="#55AA55" stroke-width="10" />
<path d="M 123.73125390248345 77.95888998830674 L 126.62903138135064 77.18243285299917" fill="none" stroke="#44BB44" stroke-width="11" />
<path d="M 126.62903138135064 77.18243285299917 L 129.56347418355205 76.55869778054588" fill="none" stroke="#32CC32" stroke-width="12" />
<path d="M 129.56347418355205 76.55869778054588 L 132.52653920533746 76.0893943854252" fill="none" stroke="#21DD21" stroke-width="13" />
<path d="M 132.52653920533746 76.0893943854252 L 135.51010489144227 75.77580899562223" fill="none" stroke="#10EE10" stroke-width="14" />
<path d="M 135.51010489144227 75.77580899562223 L 138.50599349570598 75.6188011268934" fill="none" stroke="#00FF00" stroke-width="15" />
<path d="M 138.50599349570598 75.6188011268934 L 141.70599349570597 75.6188011268934" fill="none" stroke="#EF0FEF" stroke-width="1" />
<path d="M 141.70599349570597 75.6188011268934 L 144.9016080069206 75.78627618687082" fill="none" stroke="#DF1FDF" stroke-width="2" />
<path d="M 144.9016080069206 75.78627618687082 L 148.0840780720991 76.12076726932732" fill="none" stroke="#CF2FCF" stroke-width="3" />
<path d="M 148.0840780720991 76.12076726932732 L 151.24468076200353 76.62135755745605" fill="none" stroke="#BF3FBF" stroke-width="4" />
<path d="M 151.24468076200353 76.62135755745605 L 154.3747530843517 77.28667496807289" fill="none" stroke="#AF4FAF" stroke-width="5" />
<path d="M 154.3747530843517 77.28667496807289 L 157.46571572847674 78.11489591240095" fill="none" stroke="#9F5F9F" stroke-width="6" />
<path d="M 157.46571572847674 78.11489591240095 L 160.50909658062122 79.10375029440078" fill="none" stroke="#8F6F8F" stroke-width="7" />
<path d="M 160.50909658062122 79.10375029440078 L 163.49655394541227 80.25052773294574" fill="none" stroke="#7F7F7F" stroke-width="8" />
<path d="M 163.49655394541227 80.25052773294574 L 166.4198994098686 81.5520849907883" fill="none" stroke="#6F8F6F" stroke-width="9" />
<path d="M 166.4198994098686 81.5520849907883 L 169.27112028727137 83.00485458995485" fill="none" stroke="#5F9F5F" stroke-width="10" />
<path d="M 169.27112028727137 83.00485458995485 L 172.0424015793816 84.60485458995484" fill="none" stroke="#4FAF4F" stroke-width="11" />
<path d="M 172.0424015793816 84.60485458995484 L 174.72614739680694 86.34769950200292" fill="none" stroke="#3FBF3F" stroke-width="12" />
<path d="M 174.72614739680694 86.34769950200292 L 177.31500177880676 88.22861230933884" fill="none" stroke="#2FCF2F" stroke-width="13" />
<path d="M 177.31500177880676 88.22861230933884 L 179.80186885546908 90.24243756069832" fill="none" stroke="#1FDF1F" stroke-width="14" />
<path d="M 179.80186885546908 90.24243756069832 L 182.17993229699675 92.38365550104666" fill="none" stroke="#0FEF0F" stroke-width="15" />
<path d="M 182.17993229699675 92.38365550104666 L 184.4426739967937 94.64639720084361" fill="none" stroke="#00FF00" stroke-width="16" />
<path d="M 184.4426739967937 94.64639720084361 L 186.71771805841382 97.17308960746675" fill="none" stroke="#F00FF0" stroke-width="1" />
<path d="M 186.71771805841382 97.17308960746675 L 188.85740738798327 99.81538587642045" fill="none" stroke="#E11EE1" stroke-width="2" />
<path d="M 188.85740738798327 99.81538587642045 L 190.8558772457777 102.56604365729527" fill="none" stroke="#D22DD2" stroke-width="3" />
<path d="M 190.8558772457777 102.56604365729527 L 192.7076499648288 105.4175235883097" fill="none" stroke="#C33CC3" stroke-width="4" />
<path d="M 192.7076499648288 105.4175235883097 L 194.40764996482878 108.3620099611768" fill="none" stroke="#B34BB3" stroke-width="5" />
<path d="M 194.40764996482878 108.3620099611768 L 195.95121766394323 111.39143214341725" fill="none" stroke="#A45AA4" stroke-width="6" />
<path d="M 195.95121766394323 111.39143214341725 L 197.33412225040095 114.49748669940209" fill="none" stroke="#966996" stroke-width="7" />
<path d="M 197.33412225040095 114.49748669940209 L 198.55257327885496 117.67166014949257" fill="none" stroke="#877887" stroke-width="8" />
<path d="M 198.55257327885496 117.67166014949257 L 199.60323105972978 120.9052523048961" fill="none" stroke="#788778" stroke-width="9" />
<path d="M 199.60323105972978 120.9052523048961 L 200.48321581307835 124.18940011427893" fill="none" stroke="#699669" stroke-width="10" />
<path d="M 200.48321581307835 124.18940011427893 L 201.19011556185873 127.51510195677386" fill="none" stroke="#59A559" stroke-width="11" />
<path d="M 201.19011556185873 127.51510195677386 L 201.72199274299552 130.87324231479732" fill="none" stroke="#4AB44A" stroke-width="12" />
<path d="M 201.72199274299552 130.87324231479732 L 202.07738951810555 134.25461675904944" fill="none" stroke="#3CC33C" stroke-width="13" />
<path d="M 202.07738951810555 134.25461675904944 L 202.25533176933155 137.649957177215" fill="none" stroke="#2DD22D" stroke-width="14" />
<path d="M 202.25533176933155 137.649957177215 L 202.25533176933155 141.049957177215" fill="none" stroke="#1EE11E" stroke-width="15" />
<path d="M 202.25533176933155 141.049957177215 L 202.07738951810555 144.44529759538054" fill="none" stroke="#0FF00F" stroke-width="16" />
<path d="M 202.07738951810555 144.44529759538054 L 201.72199274299552 147.82667203963265" fill="none" stroke="#00FF00" stroke-width="17" />
<path d="M 201.72199274299552 147.82667203963265 L 201.1588286688507 151.38235006577514" fill="none" stroke="#F00EF0" stroke-width="1" />
<path d="M 201.1588286688507 151.38235006577514 L 200.41034658190677 154.90368142841683" fill="none" stroke="#E21CE2" stroke-width="2" />
<path d="M 200.41034658190677 154.90368142841683 L 199.47859801953769 158.3810144030575" fill="none" stroke="#D42AD4" stroke-width="3" />
<path d="M 199.47859801953769 158.3810144030575 L 198.36613683978788 161.80481786172004" fill="none" stroke="#C638C6" stroke-width="4" />
<path d="M 198.36613683978788 161.80481786172004 L 197.0760122214248 165.16570739710997" fill="none" stroke="#B846B8" stroke-width="5" />
<path d="M 197.0760122214248 165.16570739710997 L 195.61176030635193 168.45447104462332" fill="none" stroke="#AA54AA" stroke-width="6" />
<path d="M 195.61176030635193 168.45447104462332 L 193.97739450728957 171.66209453170146" fill="none" stroke="#9B639B" stroke-width="7" />
<path d="M 193.97739450728957 171.66209453170146 L 192.1773945072896 174.77978598532545" fill="none" stroke="#8D718D" stroke-width="8" />
<path d="M 192.1773945072896 174.77978598532545 L 190.2166939812355 177.79900002992898" fill="none" stroke="#7F7F7F" stroke-width="9" />
<path d="M 190.2166939812355 177.79900002992898 L 188.1006670729826 180.7114612096788" fill="none" stroke="#718D71" stroke-width="10" />
<path d="M 188.1006670729826 180.7114612096788 L 185.83511366520318 183.5091866709239" fill="none" stroke="#639B63" stroke-width="11" />
<path d="M 185.83511366520318 183.5091866709239 L 183.4262434823113 186.1845080426425" fill="none" stroke="#55AA55" stroke-width="12" />
<path d="M 183.4262434823113 186.1845080426425 L 180.8806590700397 188.7300924549141" fill="none" stroke="#46B846" stroke-width="13" />
<path d="M 180.8806590700397 188.7300924549141 L 178.2053376983211 191.13896263780597" fill="none" stroke="#38C638" stroke-width="14" />
<path d="M 178.2053376983211 191.13896263780597 L 175.407612237076 193.40451604558538" fill="none" stroke="#2AD42A" stroke-width="15" />
<path d="M 175.407612237076 193.40451604558538 L 172.49515105732618 195.5205429538383" fill="none" stroke="#1CE21C" stroke-width="16" />
<path d="M 172.49515105732618 195.5205429538383 L 169.47593701272265 197.48124347989238" fill="none" stroke="#0EF00E" stroke-width="17" />
<path d="M 169.47593701272265 197.48124347989238 L 166.35824555909866 199.2812434798924" fill="none" stroke="#00FF00" stroke-width="18" />
<path d="M 166.35824555909866 199.2812434798924 L 162.97242076718285 201.00640737890268" fill="none" stroke="#F10DF1" stroke-width="1" />
<path d="M 162.97242076718285 201.00640737890268 L 159.50094802814098 202.5520066225907" fill="none" stroke="#E41AE4" stroke-width="2" />
<path d="M 159.50094802814098 202.5520066225907 L 155.95334240745163 203.91380483086286" fill="none" stroke="#D628D6" stroke-width="3" />
<path d="M 155.95334240745163 203.91380483086286 L 152.33932764553003 205.08806940948767" fill="none" stroke="#C935C9" stroke-width="4" />
<path d="M 152.33932764553003 205.08806940948767 L 148.66880950563157 206.07158178087724" fill="none" stroke="#BB43BB" stroke-width="5" />
<path d="M 148.66880950563157 206.07158178087724 L 144.9518486228431 206.86164620598473" fill="none" stroke="#AE50AE" stroke-width="6" />
<path d="M 144.9518486228431 206.86164620598473 L 141.1986329285816 207.4560971731376" fill="none" stroke="#A15DA1" stroke-width="7" />
<path d="M 141.1986329285816 207.4560971731376 L 137.41944972618214 207.8533053335547" fill="none" stroke="#936B93" stroke-width="8" />
<path d="M 137.41944972618214 207.8533053335547 L 133.62465749411476 208.05218196727787" fill="none" stroke="#867886" stroke-width="9" />
<path d="M 133.62465749411476 208.05218196727787 L 129.82465749411475 208.05218196727787" fill="none" stroke="#788678" stroke-width="10" />
<path d="M 129.82465749411475 208.05218196727787 L 126.02986526204737 207.8533053335547" fill="none" stroke="#6B936B" stroke-width="11" />
<path d="M 126.02986526204737 207.8533053335547 L 122.25068205964793 207.4560971731376" fill="none" stroke="#5DA15D" stroke-width="12" />
<path d="M 122.25068205964793 207.4560971731376 L 118.4974663653864 206.86164620598473" fill="none" stroke="#50AE50" stroke-width="13" />
<path d="M 118.4974663653864 206.86164620598473 L 114.78050548259795 206.07158178087724" fill="none" stroke="#43BB43" stroke-width="14" />
<path d="M 114.78050548259795 206.07158178087724 L 111.10998734269948 205.08806940948767" fill="none" stroke="#35C935" stroke-width="15" />
<path d="M 111.10998734269948 205.08806940948767 L 107.4959725807779 203.9138048308629" fill="none" stroke="#28D628" stroke-width="16" />
<path d="M 107.4959725807779 203.9138048308629 L 103.94836696008853 202.55200662259074" fill="none" stroke="#1AE41A" stroke-width="17" />
<path d="M 103.94836696008853 202.55200662259074 L 100.47689422104665 201.0064073789027" fill="none" stroke="#0DF10D" stroke-width="18" />
<path d="M 100.47689422104665 201.0064073789027 L 97.09106942913085 199.28124347989242" fill="none" stroke="#00FF00" stroke-width="19" />
<path d="M 97.09106942913085 199.28124347989242 L 93.6269678139931 197.28124347989242" fill="none" stroke="#F20CF2" stroke-width="1" />
<path d="M 93.6269678139931 197.28124347989242 L 90.2722855422114 195.10268733983233" fill="none" stroke="#E519E5" stroke-width="2" />
<path d="M 90.2722855422114 195.10268733983233 L 87.03621756471162 192.75154633066245" fill="none" stroke="#D826D8" stroke-width="3" />
<path d="M 87.03621756471162 192.75154633066245 L 83.92763371888374 190.2342647664631" fill="none" stroke="#CC32CC" stroke-width="4" />
<path d="M 83.92763371888374 190.2342647664631 L 80.95505441697416 187.55774234102768" fill="none" stroke="#BF3FBF" stroke-width="5" />
<path d="M 80.95505441697416 187.55774234102768 L 78.12662729222798 184.7293152162815" fill="none" stroke="#B24CB2" stroke-width="6" />
<path d="M 78.12662729222798 184.7293152162815 L 75.45010486679254 181.75673591437192" fill="none" stroke="#A559A5" stroke-width="7" />
<path d="M 75.45010486679254 181.75673591437192 L 72.93282330259319 178.64815206854402" fill="none" stroke="#996699" stroke-width="8" />
<path d="M 72.93282330259319 178.64815206854402 L 70.5816822934233 175.41208409104422" fill="none" stroke="#8C728C" stroke-width="9" />
<path d="M 70.5816822934233 175.41208409104422 L 68.40312615336319 172.05740181926254" fill="none" stroke="#7F7F7F" stroke-width="10" />
<path d="M 68.40312615336319 172.05740181926254 L 66.40312615336319 168.59330020412477" fill="none" stroke="#728C72" stroke-width="11" />
<path d="M 66.40312615336319 168.59330020412477 L 64.587164154405 165.0292741073713" fill="none" stroke="#669966" stroke-width="12" />
<path d="M 64.587164154405 165.0292741073713 L 62.9602175821018 161.3750922768009" fill="none" stroke="#59A559" stroke-width="13" />
<path d="M 62.9602175821018 161.3750922768009 L 61.526745783920596 157.6407705708121" fill="none" stroke="#4CB24C" stroke-width="14" />
<path d="M 61.526745783920596 157.6407705708121 L 60.2906778064208 153.83654450563148" fill="none" stroke="#3FBF3F" stroke-width="15" />
<path d="M 60.2906778064208 153.83654450563148 L 59.255401626010716 149.97284120047522" fill="none" stroke="#32CC32" stroke-width="16" />
<path d="M 59.255401626010716 149.97284120047522 L 58.42375486273967 146.06025079754" fill="none" stroke="#26D826" stroke-width="17" />
<path d="M 58.42375486273967 146.06025079754 L 57.798017002578746 142.10949743515945" fill="none" stroke="#19E519" stroke-width="18" />
<path d="M 57.798017002578746 142.10949743515945 L 57.37990314950814 138.13140985368636" fill="none" stroke="#0CF20C" stroke-width="19" />
<path d="M 57.37990314950814 138.13140985368636 L 57.17055932453636 134.13689171466808" fill="none" stroke="#00FF00" stroke-width="20" />
<path d="M 57.17055932453636 134.13689171466808 L 57.17055932453636 129.9368917146681" fill="none" stroke="#F20CF2" stroke-width="1" />
<path d="M 57.17055932453636 129.9368917146681 L 57.390370340756725 125.74264766869888" fill="none" stroke="#E618E6" stroke-width="2" />
<path d="M 57.390370340756725 125.74264766869888 L 57.82938988648086 121.56565570815214" fill="none" stroke="#DA24DA" stroke-width="3" />
<path d="M 57.82938988648086 121.56565570815214 L 58.48641463964982 117.41736467765256" fill="none" stroke="#CE30CE" stroke-width="4" />
<path d="M 58.48641463964982 117.41736467765256 L 59.35964374108441 113.30914475457057" fill="none" stroke="#C23CC2" stroke-width="5" />
<path d="M 59.35964374108441 113.30914475457057 L 60.446683730515 109.25225628415647" fill="none" stroke="#B648B6" stroke-width="6" />
<path d="M 60.446683730515 109.25225628415647 L 61.74455510688978 105.25781891571683" fill="none" stroke="#AA54AA" stroke-width="7" />
<path d="M 61.74455510688978 105.25781891571683 L 63.24970049498004 101.33678112442858" fill="none" stroke="#9D619D" stroke-width="8" />
<path d="M 63.24970049498004 101.33678112442858 L 64.9579943958984 97.49989020232965" fill="none" stroke="#916D91" stroke-width="9" />
<path d="M 64.9579943958984 97.49989020232965 L 66.86475449480449 93.7576628007385" fill="none" stroke="#857985" stroke-width="10" />
<path d="M 66.86475449480449 93.7576628007385 L 68.96475449480448 90.12035610484385" fill="none" stroke="#798579" stroke-width="11" />
<path d="M 68.96475449480448 90.12035610484385 L 71.25223844186759 86.59793971947306" fill="none" stroke="#6D916D" stroke-width="12" />
<path d="M 71.25223844186759 86.59793971947306 L 73.72093650149597 83.20006834309828" fill="none" stroke="#619D61" stroke-width="13" />
<path d="M 73.72093650149597 83.20006834309828 L 76.36408214390529 79.936055304979" fill="none" stroke="#55AA55" stroke-width="14" />
<path d="M 76.36408214390529 79.936055304979 L 79.1744306906125 76.81484703797395" fill="none" stroke="#48B648" stroke-width="15" />
<path d="M 79.1744306906125 76.81484703797395 L 82.144279171596 73.84499855699045" fill="none" stroke="#3CC23C" stroke-width="16" />
<path d="M 82.144279171596 73.84499855699045 L 85.26548743860106 71.03465001028324" fill="none" stroke="#30CE30" stroke-width="17" />
<path d="M 85.26548743860106 71.03465001028324 L 88.52950047672033 68.39150436787392" fill="none" stroke="#24DA24" stroke-width="18" />
<path d="M 88.52950047672033 68.39150436787392 L 91.92737185309511 65.92280630824553" fill="none" stroke="#18E618" stroke-width="19" />
<path d="M 91.92737185309511 65.92280630824553 L 95.44978823846589 63.63532236118241" fill="none" stroke="#0CF20C" stroke-width="20" />
<path d="M 95.44978823846589 63.63532236118241 L 99.08709493436052 61.53532236118241" fill="none" stroke="#00FF00" stroke-width="21" />
<path d="M 99.08709493436052 61.53532236118241 L 103.00752364078934 59.53776416232841" fill="none" stroke="#F30BF3" stroke-width="1" />
<path d="M 103.00752364078934 59.53776416232841 L 107.02712365441678 57.748122932794885" fill="none" stroke="#E717E7" stroke-width="2" />
<path d="M 107.02712365441678 57.748122932794885 L 111.13487753100446 56.17130395479556" fill="none" stroke="#DC22DC" stroke-width="3" />
<path d="M 111.13487753100446 56.17130395479556 L 115.31952620270314 54.81162917954579" fill="none" stroke="#D02ED0" stroke-width="4" />
<path d="M 115.31952620270314 54.81162917954579 L 119.56959983837504 53.6728253810947" fill="none" stroke="#C539C5" stroke-width="5" />
<path d="M 119.56959983837504 53.6728253810947 L 123.87344928160378 52.75801394149655" fill="none" stroke="#B945B9" stroke-width="6" />
<path d="M 123.87344928160378 52.75801394149655 L 128.2192779802224 52.06970229531954" fill="none" stroke="#AD51AD" stroke-width="7" />
<path d="M 128.2192779802224 52.06970229531954 L 132.59517431984278 51.609777056941866" fill="none" stroke="#A25CA2" stroke-width="8" />
<path d="M 132.59517431984278 51.609777056941866 L 136.9891442727629 51.37949884947291" fill="none" stroke="#966896" stroke-width="9" />
<path d="M 136.9891442727629 51.37949884947291 L 141.3891442727629 51.37949884947291" fill="none" stroke="#8B738B" stroke-width="10" />
<path d="M 141.3891442727629 51.37949884947291 L 145.78311422568302 51.60977705694186" fill="none" stroke="#7F7F7F" stroke-width="11" />
<path d="M 145.78311422568302 51.60977705694186 L 150.15901056530342 52.06970229531953" fill="none" stroke="#738B73" stroke-width="12" />
<path d="M 150.15901056530342 52.06970229531953 L 154.50483926392204 52.75801394149654" fill="none" stroke="#689668" stroke-width="13" />
<path d="M 154.50483926392204 52.75801394149654 L 158.8086887071508 53.67282538109468" fill="none" stroke="#5CA25C" stroke-width="14" />
<path d="M 158.8086887071508 53.67282538109468 L 163.0587623428227 54.81162917954577" fill="none" stroke="#51AD51" stroke-width="15" />
<path d="M 163.0587623428227 54.81162917954577 L 167.24341101452137 56.171303954795526" fill="none" stroke="#45B945" stroke-width="16" />
<path d="M 167.24341101452137 56.171303954795526 L 171.35116489110905 57.74812293279484" fill="none" stroke="#39C539" stroke-width="17" />
<path d="M 171.35116489110905 57.74812293279484 L 175.3707649047365 59.537764162328365" fill="none" stroke="#2ED02E" stroke-width="18" />
<path d="M 175.3707649047365 59.537764162328365 L 179.2911936111653 61.535322361182374" fill="none" stroke="#22DC22" stroke-width="19" />
<path d="M 179.2911936111653 61.535322361182374 L 183.10170538781685 63.73532236118238" fill="none" stroke="#17E717" stroke-width="20" />
<path d="M 183.10170538781685 63.73532236118238 L 186.79185588677672 66.1317341152485" fill="none" stroke="#0BF30B" stroke-width="21" />
<path d="M 186.79185588677672 66.1317341152485 L 190.35153066202648 68.71798922533539" fill="none" stroke="#00FF00" stroke-width="22" />
<path d="M 190.35153066202648 68.71798922533539 L 193.92640208472855 71.61286302416464" fill="none" stroke="#F30BF3" stroke-width="1" />
<path d="M 193.92640208472855 71.61286302416464 L 197.34486828192456 74.69086381341539" fill="none" stroke="#E816E8" stroke-width="2" />
<path d="M 197.34486828192456 74.69086381341539 L 200.59755947538267 77.94355500687351" fill="none" stroke="#DD21DD" stroke-width="3" />
<path d="M 200.59755947538267 77.94355500687351 L 203.67556026463342 81.36202120406952" fill="none" stroke="#D22CD2" stroke-width="4" />
<path d="M 203.67556026463342 81.36202120406952 L 206.57043406346267 84.93689262677158" fill="none" stroke="#C737C7" stroke-width="5" />
<path d="M 206.57043406346267 84.93689262677158 L 209.27424622400804 88.65837080089634" fill="none" stroke="#BC42BC" stroke-width="6" />
<path d="M 209.27424622400804 88.65837080089634 L 211.77958578507716 92.51625541344528" fill="none" stroke="#B14DB1" stroke-width="7" />
<path d="M 211.77958578507716 92.51625541344528 L 214.07958578507717 96.49997227085369" fill="none" stroke="#A658A6" stroke-width="8" />
<path d="M 214.07958578507717 96.49997227085369 L 216.1679420838791 100.59860228212018" fill="none" stroke="#9B639B" stroke-width="9" />
<path d="M 216.1679420838791 100.59860228212018 L 218.0389306420278 104.80091138727614" fill="none" stroke="#906E90" stroke-width="10" />
<path d="M 218.0389306420278 104.80091138727614 L 219.68742320993618 109.09538134916328" fill="none" stroke="#857985" stroke-width="11" />
<path d="M 219.68742320993618 109.09538134916328 L 221.10890138406094 113.47024132412099" fill="none" stroke="#798579" stroke-width="12" />
<path d="M 221.10890138406094 113.47024132412099 L 222.29946899153254 117.9135001250507" fill="none" stroke="#6E906E" stroke-width="13" />
<path d="M 222.29946899153254 117.9135001250507 L 223.25586276929423 122.41297908842621" fill="none" stroke="#639B63" stroke-width="14" />
<path d="M 223.25586276929423 122.41297908842621 L 223.97546130847928 126.95634545516384" fill="none" stroke="#58A658" stroke-width="15" />
<path d="M 223.97546130847928 126.95634545516384 L 224.45629223951047 131.5311461738579" fill="none" stroke="#4DB14D" stroke-width="16" />
<path d="M 224.45629223951047 131.5311461738579 L 224.697037638228 136.12484203372895" fill="none" stroke="#42BC42" stroke-width="17" />
<path d="M 224.697037638228 136.12484203372895 L 224.697037638228 140.72484203372895" fill="none" stroke="#37C737" stroke-width="18" />
<path d="M 224.697037638228 140.72484203372895 L 224.45629223951047 145.3185378936" fill="none" stroke="#2CD22C" stroke-width="19" />
<path d="M 224.45629223951047 145.3185378936 L 223.97546130847928 149.89333861229406" fill="none" stroke="#21DD21" stroke-width="20" />
<path d="M 223.97546130847928 149.89333861229406 L 223.25586276929423 154.4367049790317" fill="none" stroke="#16E816" stroke-width="21" />
<path d="M 223.25586276929423 154.4367049790317 L 222.29946899153254 158.9361839424072" fill="none" stroke="#0BF30B" stroke-width="22" />
<path d="M 222.29946899153254 158.9361839424072 L 221.10890138406094 163.37944274333694" fill="none" stroke="#00FF00" stroke-width="23" />
<path d="M 221.10890138406094 163.37944274333694 L 219.6256198110612 167.9445140215537" fill="none" stroke="#F40AF4" stroke-width="1" />
<path d="M 219.6256198110612 167.9445140215537 L 217.90545365324377 172.42570006874027" fill="none" stroke="#E915E9" stroke-width="2" />
<path d="M 217.90545365324377 172.42570006874027 L 215.95311776647992 176.81071826542475" fill="none" stroke="#DF1FDF" stroke-width="3" />
<path d="M 215.95311776647992 176.81071826542475 L 213.7739633677301 181.08754958152892" fill="none" stroke="#D42AD4" stroke-width="4" />
<path d="M 213.7739633677301 181.08754958152892 L 211.37396336773008 185.24447151969423" fill="none" stroke="#C935C9" stroke-width="5" />
<path d="M 211.37396336773008 185.24447151969423 L 208.75969599965796 189.27009024583225" fill="none" stroke="#BF3FBF" stroke-width="6" />
<path d="M 208.75969599965796 189.27009024583225 L 205.93832678865408 193.153371818832" fill="none" stroke="#B44AB4" stroke-width="7" />
<path d="M 205.93832678865408 193.153371818832 L 202.91758891161487 196.88367243382547" fill="none" stroke="#AA54AA" stroke-width="8" />
<path d="M 202.91758891161487 196.88367243382547 L 199.70576200109235 200.45076759611695" fill="none" stroke="#9F5F9F" stroke-width="9" />
<path d="M 199.70576200109235 200.45076759611695 L 196.31164945139693 203.84488014581237" fill="none" stroke="#946A94" stroke-width="10" />
<path d="M 196.31164945139693 203.84488014581237 L 192.74455428910545 207.0567070563349" fill="none" stroke="#8A748A" stroke-width="11" />
<path d="M 192.74455428910545 207.0567070563349 L 189.01425367411198 210.0774449333741" fill="none" stroke="#7F7F7F" stroke-width="12" />
<path d="M 189.01425367411198 210.0774449333741 L 185.13097210111223 212.89881414437798" fill="none" stroke="#748A74" stroke-width="13" />
<path d="M 185.13097210111223 212.89881414437798 L 181.10535337497421 215.51308151245013" fill="none" stroke="#6A946A" stroke-width="14" />
<path d="M 181.10535337497421 215.51308151245013 L 176.9484314368089 217.91308151245013" fill="none" stroke="#5F9F5F" stroke-width="15" />
<path d="M 176.9484314368089 217.91308151245013 L 172.67160012070474 220.09223591119996" fill="none" stroke="#55AA55" stroke-width="16" />
<path d="M 172.67160012070474 220.09223591119996 L 168.28658192402025 222.0445717979638" fill="none" stroke="#4AB44A" stroke-width="17" />
<path d="M 168.28658192402025 222.0445717979638 L 163.80539587683367 223.76473795578124" fill="none" stroke="#3FBF3F" stroke-width="18" />
<path d="M 163.80539587683367 223.76473795578124 L 159.24032459861692 225.248019528781" fill="none" stroke="#35C935" stroke-width="19" />
<path d="M 159.24032459861692 225.248019528781 L 154.6038806324294 226.4903509452731" fill="none" stroke="#2AD42A" stroke-width="20" />
<path d="M 154.6038806324294 226.4903509452731 L 149.90877214890713 227.48832706119833" fill="none" stroke="#1FDF1F" stroke-width="21" />
<path d="M 149.90877214890713 227.48832706119833 L 145.16786811405046 228.23921249339145" fill="none" stroke="#15E915" stroke-width="22" />
<path d="M 145.16786811405046 228.23921249339145 L 140.39416301628276 228.74094911707618" fill="none" stroke="#0AF40A" stroke-width="23" />
<path d="M 140.39416301628276 228.74094911707618 L 135.6007412494608 228.99216170704233" fill="none" stroke="#00FF00" stroke-width="24" />
<path d="M 135.6007412494608 228.99216170704233 L 130.6007412494608 228.99216170704233" fill="none" stroke="#F40AF4" stroke-width="1" />
<path d="M 130.6007412494608 228.99216170704233 L 125.60759357568794 228.7304819258276" fill="none" stroke="#EA14EA" stroke-width="2" />
<path d="M 125.60759357568794 228.7304819258276 L 120.63498409884657 228.20783960948935" fill="none" stroke="#E01EE0" stroke-width="3" />
<path d="M 120.63498409884657 228.20783960948935 L 115.69654239587088 227.4256672842882" fill="none" stroke="#D628D6" stroke-width="4" />
<path d="M 115.69654239587088 227.4256672842882 L 110.80580439220185 226.38610883019942" fill="none" stroke="#CC32CC" stroke-width="5" />
<path d="M 110.80580439220185 226.38610883019942 L 105.9761752607565 225.09201360468683" fill="none" stroke="#C13DC1" stroke-width="6" />
<path d="M 105.9761752607565 225.09201360468683 L 101.22089267928074 223.5469286328121" fill="none" stroke="#B747B7" stroke-width="7" />
<path d="M 101.22089267928074 223.5469286328121 L 96.55299054679472 221.7550888850856" fill="none" stroke="#AD51AD" stroke-width="8" />
<path d="M 96.55299054679472 221.7550888850856 L 91.98526325858171 219.7214056697066" fill="none" stroke="#A35BA3" stroke-width="9" />
<path d="M 91.98526325858171 219.7214056697066 L 87.53023063763987 217.45145317100886" fill="none" stroke="#996699" stroke-width="10" />
<path d="M 87.53023063763987 217.45145317100886 L 83.20010361871768 214.95145317100886" fill="none" stroke="#8E708E" stroke-width="11" />
<path d="M 83.20010361871768 214.95145317100886 L 79.00675077899055 212.22825799593375" fill="none" stroke="#847A84" stroke-width="12" />
<path d="M 79.00675077899055 212.22825799593375 L 74.9616658071158 209.28933173447138" fill="none" stroke="#7A847A" stroke-width="13" />
<path d="M 74.9616658071158 209.28933173447138 L 71.07593599983095 206.14272977922218" fill="none" stroke="#708E70" stroke-width="14" />
<path d="M 71.07593599983095 206.14272977922218 L 67.36021187244397 202.7970767474279" fill="none" stroke="#669966" stroke-width="15" />
<path d="M 67.36021187244397 202.7970767474279 L 63.82467796651123 199.26154284149516" fill="none" stroke="#5BA35B" stroke-width="16" />
<path d="M 63.82467796651123 199.26154284149516 L 60.47902493471694 195.54581871410818" fill="none" stroke="#51AD51" stroke-width="17" />
<path d="M 60.47902493471694 195.54581871410818 L 57.332422979467744 191.66008890682335" fill="none" stroke="#47B747" stroke-width="18" />
<path d="M 57.332422979467744 191.66008890682335 L 54.393496718005366 187.61500393494862" fill="none" stroke="#3DC13D" stroke-width="19" />
<path d="M 54.393496718005366 187.61500393494862 L 51.67030154293022 183.4216510952215" fill="none" stroke="#32CC32" stroke-width="20" />
<path d="M 51.67030154293022 183.4216510952215 L 49.17030154293021 179.09152407629932" fill="none" stroke="#28D628" stroke-width="21" />
<path d="M 49.17030154293021 179.09152407629932 L 46.90034904423247 174.6364914553575" fill="none" stroke="#1EE01E" stroke-width="22" />
<path d="M 46.90034904423247 174.6364914553575 L 44.86666582885346 170.06876416714448" fill="none" stroke="#14EA14" stroke-width="23" />
<path d="M 44.86666582885346 170.06876416714448 L 43.07482608112696 165.40086203465847" fill="none" stroke="#0AF40A" stroke-width="24" />
<path d="M 43.07482608112696 165.40086203465847 L 41.529741109252214 160.6455794531827" fill="none" stroke="#00FF00" stroke-width="25" />
<path d="M 41.529741109252214 160.6455794531827 L 40.1838820747191 155.62276515647955" fill="none" stroke="#F509F5" stroke-width="1" />
<path d="M 40.1838820747191 155.62276515647955 L 39.10274128246675 150.53639763266375" fill="none" stroke="#EB13EB" stroke-width="2" />
<path d="M 39.10274128246675 150.53639763266375 L 38.289282064257556 145.40041826156903" fill="none" stroke="#E11DE1" stroke-width="3" />
<path d="M 38.289282064257556 145.40041826156903 L 37.74573405526576 140.22890440565402" fill="none" stroke="#D727D7" stroke-width="4" />
<path d="M 37.74573405526576 140.22890440565402 L 37.47358708280245 135.03603082493024" fill="none" stroke="#CD31CD" stroke-width="5" />
<path d="M 37.47358708280245 135.03603082493024 L 37.47358708280244 129.83603082493025" fill="none" stroke="#C43AC4" stroke-width="6" />
<path d="M 37.47358708280244 129.83603082493025 L 37.745734055265736 124.64315724420646" fill="none" stroke="#BA44BA" stroke-width="7" />
<path d="M 37.745734055265736 124.64315724420646 L 38.28928206425753 119.47164338829144" fill="none" stroke="#B04EB0" stroke-width="8" />
<path d="M 38.28928206425753 119.47164338829144 L 39.10274128246672 114.33566401719672" fill="none" stroke="#A658A6" stroke-width="9" />
<path d="M 39.10274128246672 114.33566401719672 L 40.18388207471906 109.24929649338092" fill="none" stroke="#9C629C" stroke-width="10" />
<path d="M 40.18388207471906 109.24929649338092 L 41.529741109252164 104.22648219667776" fill="none" stroke="#936B93" stroke-width="11" />
<path d="M 41.529741109252164 104.22648219667776 L 43.136629480001886 99.28098831194296" fill="none" stroke="#897589" stroke-width="12" />
<path d="M 43.136629480001886 99.28098831194296 L 45.000142817637446 94.42637009415752" fill="none" stroke="#7F7F7F" stroke-width="13" />
<path d="M 45.000142817637446 94.42637009415752 L 47.115173361631605 89.67593371441599" fill="none" stroke="#758975" stroke-width="14" />
<path d="M 47.115173361631605 89.67593371441599 L 49.47592396027725 85.04269978863648" fill="none" stroke="#6B936B" stroke-width="15" />
<path d="M 49.47592396027725 85.04269978863648 L 52.07592396027725 80.5393676889574" fill="none" stroke="#629C62" stroke-width="16" />
<path d="M 52.07592396027725 80.5393676889574 L 54.9080469423554 76.1782807356412" fill="none" stroke="#58A658" stroke-width="17" />
<path d="M 54.9080469423554 76.1782807356412 L 57.96453025427626 71.97139236489147" fill="none" stroke="#4EB04E" stroke-width="18" />
<path d="M 57.96453025427626 71.97139236489147 L 61.23699628773542 67.93023336531523" fill="none" stroke="#44BA44" stroke-width="19" />
<path d="M 61.23699628773542 67.93023336531523 L 64.71647544080147 64.06588027283277" fill="none" stroke="#3AC43A" stroke-width="20" />
<path d="M 64.71647544080147 64.06588027283277 L 68.39343070297151 60.38892501066272" fill="none" stroke="#31CD31" stroke-width="21" />
<path d="M 68.39343070297151 60.38892501066272 L 72.25778379545396 56.90944585759665" fill="none" stroke="#27D727" stroke-width="22" />
<path d="M 72.25778379545396 56.90944585759665 L 76.2989427950302 53.63697982413749" fill="none" stroke="#1DE11D" stroke-width="23" />
<path d="M 76.2989427950302 53.63697982413749 L 80.50583116577992 50.58049651221663" fill="none" stroke="#13EB13" stroke-width="24" />
<path d="M 80.50583116577992 50.58049651221663 L 84.86691811909613 47.74837353013849" fill="none" stroke="#09F509" stroke-width="25" />
<path d="M 84.86691811909613 47.74837353013849 L 89.37025021877521 45.148373530138485" fill="none" stroke="#00FF00" stroke-width="26" />
<path d="M 89.37025021877521 45.148373530138485 L 94.18168544939239 42.696824831544916" fill="none" stroke="#F509F5" stroke-width="1" />
<path d="M 94.18168544939239 42.696824831544916 L 99.11483092066243 40.500446958935576" fill="none" stroke="#EC12EC" stroke-width="2" />
<path d="M 99.11483092066243 40.500446958935576 L 104.15616522374732 38.565260031390956" fill="none" stroke="#E21CE2" stroke-width="3" />
<path d="M 104.15616522374732 38.565260031390956 L 109.29187041174116 36.89656826176625" fill="none" stroke="#D925D9" stroke-width="4" />
<path d="M 109.29187041174116 36.89656826176625 L 114.50786987370213 35.49894541821264" fill="none" stroke="#CF2FCF" stroke-width="5" />
<path d="M 114.50786987370213 35.49894541821264 L 119.78986691766468 34.37622228779675" fill="none" stroke="#C638C6" stroke-width="6" />
<path d="M 119.78986691766468 34.37622228779675 L 125.12338395687843 33.531476176579496" fill="none" stroke="#BC42BC" stroke-width="7" />
<path d="M 125.12338395687843 33.531476176579496 L 130.4938021918671 32.96702247493416" fill="none" stroke="#B34BB3" stroke-width="8" />
<path d="M 130.4938021918671 32.96702247493416 L 135.8864016795418 32.684408311222256" fill="none" stroke="#AA54AA" stroke-width="9" />
<path d="M 135.8864016795418 32.684408311222256 L 141.2864016795418 32.68440831122225" fill="none" stroke="#A05EA0" stroke-width="10" />
<path d="M 141.2864016795418 32.68440831122225 L 146.67900116721648 32.96702247493414" fill="none" stroke="#976797" stroke-width="11" />
<path d="M 146.67900116721648 32.96702247493414 L 152.04941940220516 33.53147617657947" fill="none" stroke="#8D718D" stroke-width="12" />
<path d="M 152.04941940220516 33.53147617657947 L 157.3829364414189 34.376222287796715" fill="none" stroke="#847A84" stroke-width="13" />
<path d="M 157.3829364414189 34.376222287796715 L 162.66493348538145 35.4989454182126" fill="none" stroke="#7A847A" stroke-width="14" />
<path d="M 162.66493348538145 35.4989454182126 L 167.88093294734242 36.8965682617662" fill="none" stroke="#718D71" stroke-width="15" />
<path d="M 167.88093294734242 36.8965682617662 L 173.01663813533625 38.5652600313909" fill="none" stroke="#679767" stroke-width="16" />
<path d="M 173.01663813533625 38.5652600313909 L 178.05797243842113 40.50044695893551" fill="none" stroke="#5EA05E" stroke-width="17" />
<path d="M 178.05797243842113 40.50044695893551 L 182.99111790969118 42.696824831544845" fill="none" stroke="#55AA55" stroke-width="18" />
<path d="M 182.99111790969118 42.696824831544845 L 187.80255314030836 45.14837353013841" fill="none" stroke="#4BB34B" stroke-width="19" />
<path d="M 187.80255314030836 45.14837353013841 L 192.47909032074435 47.8483735301384" fill="none" stroke="#42BC42" stroke-width="20" />
<path d="M 192.47909032074435 47.8483735301384 L 197.00791138764964 50.78942431921954" fill="none" stroke="#38C638" stroke-width="21" />
<path d="M 197.00791138764964 50.78942431921954 L 201.37660315727436 53.96346468159889" fill="none" stroke="#2FCF2F" stroke-width="22" />
<path d="M 201.37660315727436 53.96346468159889 L 205.573191349142 57.36179479326801" fill="none" stroke="#25D925" stroke-width="23" />
<path d="M 205.573191349142 57.36179479326801 L 209.58617340671995 60.975100067605844" fill="none" stroke="#1CE21C" stroke-width="24" />
<path d="M 209.58617340671995 60.975100067605844 L 213.40455002512732 64.79347668601321" fill="none" stroke="#12EC12" stroke-width="25" />
<path d="M 213.40455002512732 64.79347668601321 L 217.01785529946517 68.80645874359114" fill="none" stroke="#09F509" stroke-width="26" />
<path d="M 217.01785529946517 68.80645874359114 L 220.4161854111343 73.00304693545877" fill="none" stroke="#00FF00" stroke-width="27" />
<path d="M 220.4161854111343 73.00304693545877 L 223.70778282397217 77.53354210395847" fill="none" stroke="#F509F5" stroke-width="1" />
<path d="M 223.70778282397217 77.53354210395847 L 226.75776142005634 82.23009728445284" fill="none" stroke="#EC12EC" stroke-width="2" />
<path d="M 226.75776142005634 82.23009728445284 L 229.55776142005635 87.07983954564568" fill="none" stroke="#E31BE3" stroke-width="3" />
<path d="M 229.55776142005635 87.07983954564568 L 232.10010821859782 92.06947608110053" fill="none" stroke="#DA24DA" stroke-width="4" />
<path d="M 232.10010821859782 92.06947608110053 L 234.3778334198223 97.18533064389909" fill="none" stroke="#D12DD1" stroke-width="5" />
<path d="M 234.3778334198223 97.18533064389909 L 236.38469393727598 102.41338103228343" fill="none" stroke="#C836C8" stroke-width="6" />
<path d="M 236.38469393727598 102.41338103228343 L 238.1151891057757 107.73929752353628" fill="none" stroke="#BF3FBF" stroke-width="7" />
<path d="M 238.1151891057757 107.73929752353628 L 239.5645757583498 113.14848215075506" fill="none" stroke="#B648B6" stroke-width="8" />
<path d="M 239.5645757583498 113.14848215075506 L 240.72888122692925 118.62610871486437" fill="none" stroke="#AD51AD" stroke-width="9" />
<path d="M 240.72888122692925 118.62610871486437 L 241.60491423115454 124.15716342219714" fill="none" stroke="#A35BA3" stroke-width="10" />
<path d="M 241.60491423115454 124.15716342219714 L 242.1902736254534 129.72648603625947" fill="none" stroke="#9A649A" stroke-width="11" />
<path d="M 242.1902736254534 129.72648603625947 L 242.48335498041388 135.3188114308851" fill="none" stroke="#916D91" stroke-width="12" />
<path d="M 242.48335498041388 135.3188114308851 L 242.48335498041388 140.91881143088509" fill="none" stroke="#887688" stroke-width="13" />
<path d="M 242.48335498041388 140.91881143088509 L 242.19027362545341 146.5111368255107" fill="none" stroke="#7F7F7F" stroke-width="14" />
<path d="M 242.19027362545341 146.5111368255107 L 241.60491423115457 152.08045943957305" fill="none" stroke="#768876" stroke-width="15" />
<path d="M 241.60491423115457 152.08045943957305 L 240.72888122692927 157.61151414690582" fill="none" stroke="#6D916D" stroke-width="16" />
<path d="M 240.72888122692927 157.61151414690582 L 239.56457575834983 163.08914071101512" fill="none" stroke="#649A64" stroke-width="17" />
<path d="M 239.56457575834983 163.08914071101512 L 238.11518910577573 168.4983253382339" fill="none" stroke="#5BA35B" stroke-width="18" />
<path d="M 238.11518910577573 168.4983253382339 L 236.384693937276 173.82424182948677" fill="none" stroke="#51AD51" stroke-width="19" />
<path d="M 236.384693937276 173.82424182948677 L 234.37783341982234 179.0522922178711" fill="none" stroke="#48B648" stroke-width="20" />
<path d="M 234.37783341982234 179.0522922178711 L 232.10010821859785 184.16814678066967" fill="none" stroke="#3FBF3F" stroke-width="21" />
<path d="M 232.10010821859785 184.16814678066967 L 229.55776142005638 189.15778331612452" fill="none" stroke="#36C836" stroke-width="22" />
<path d="M 229.55776142005638 189.15778331612452 L 226.75776142005637 194.00752557731738" fill="none" stroke="#2DD12D" stroke-width="23" />
<path d="M 226.75776142005637 194.00752557731738 L 223.70778282397222 198.70408075781177" fill="none" stroke="#24DA24" stroke-width="24" />
<path d="M 223.70778282397222 198.70408075781177 L 220.41618541113436 203.23457592631146" fill="none" stroke="#1BE31B" stroke-width="25" />
<path d="M 220.41618541113436 203.23457592631146 L 216.89199122125527 207.5865933104705" fill="none" stroke="#12EC12" stroke-width="26" />
<path d="M 216.89199122125527 207.5865933104705 L 213.14485982564568 211.74820433314392" fill="none" stroke="#09F509" stroke-width="27" />
<path d="M 213.14485982564568 211.74820433314392 L 209.18506185100102 215.7080023077886" fill="none" stroke="#00FF00" stroke-width="28" />
<path d="M 209.18506185100102 215.7080023077886 L 204.87482186323214 219.58895982466998" fill="none" stroke="#F608F6" stroke-width="1" />
<path d="M 204.87482186323214 219.58895982466998 L 200.3673752867817 223.23901809275904" fill="none" stroke="#ED11ED" stroke-width="2" />
<path d="M 200.3673752867817 223.23901809275904 L 195.675076719407 226.64817255605539" fill="none" stroke="#E41AE4" stroke-width="3" />
<path d="M 195.675076719407 226.64817255605539 L 190.81078742532355 229.80707895914256" fill="none" stroke="#DB23DB" stroke-width="4" />
<path d="M 190.81078742532355 229.80707895914256 L 185.78784008337382 232.70707895914256" fill="none" stroke="#D32BD3" stroke-width="5" />
<path d="M 185.78784008337382 232.70707895914256 L 180.6200022430813 235.34022385763194" fill="none" stroke="#CA34CA" stroke-width="6" />
<path d="M 180.6200022430813 235.34022385763194 L 175.32143858875423 237.6992963874716" fill="none" stroke="#C13DC1" stroke-width="7" />
<path d="M 175.32143858875423 237.6992963874716 L 169.90667211507045 239.77783049483435" fill="none" stroke="#B846B8" stroke-width="8" />
<path d="M 169.90667211507045 239.77783049483435 L 164.39054432055855 241.57012906220905" fill="none" stroke="#AF4FAF" stroke-width="9" />
<path d="M 164.39054432055855 241.57012906220905 L 158.78817452808195 243.07127952380367" fill="none" stroke="#A757A7" stroke-width="10" />
<path d="M 158.78817452808195 243.07127952380367 L 153.11491844382587 244.27716733054666" fill="none" stroke="#9E609E" stroke-width="11" />
<path d="M 153.11491844382587 244.27716733054666 L 147.38632606837407 245.18448722778" fill="none" stroke="#956995" stroke-width="12" />
<path d="M 147.38632606837407 245.18448722778 L 141.6180990752381 245.7907523147324" fill="none" stroke="#8C728C" stroke-width="13" />
<path d="M 141.6180990752381 245.7907523147324 L 135.82604777366157 246.09430086094147" fill="none" stroke="#837B83" stroke-width="14" />
<path d="M 135.82604777366157 246.09430086094147 L 130.02604777366156 246.09430086094147" fill="none" stroke="#7B837B" stroke-width="15" />
<path d="M 130.02604777366156 246.09430086094147 L 124.23399647208502 245.7907523147324" fill="none" stroke="#728C72" stroke-width="16" />
<path d="M 124.23399647208502 245.7907523147324 L 118.46576947894904 245.18448722778" fill="none" stroke="#699569" stroke-width="17" />
<path d="M 118.46576947894904 245.18448722778 L 112.73717710349725 244.27716733054666" fill="none" stroke="#609E60" stroke-width="18" />
<path d="M 112.73717710349725 244.27716733054666 L 107.06392101924116 243.07127952380367" fill="none" stroke="#57A757" stroke-width="19" />
<path d="M 107.06392101924116 243.07127952380367 L 101.46155122676456 241.57012906220908" fill="none" stroke="#4FAF4F" stroke-width="20" />
<path d="M 101.46155122676456 241.57012906220908 L 95.94542343225265 239.7778304948344" fill="none" stroke="#46B846" stroke-width="21" />
<path d="M 95.94542343225265 239.7778304948344 L 90.53065695856888 237.69929638747166" fill="none" stroke="#3DC13D" stroke-width="22" />
<path d="M 90.53065695856888 237.69929638747166 L 85.2320933042418 235.34022385763203" fill="none" stroke="#34CA34" stroke-width="23" />
<path d="M 85.2320933042418 235.34022385763203 L 80.06425546394927 232.70707895914265" fill="none" stroke="#2BD32B" stroke-width="24" />
<path d="M 80.06425546394927 232.70707895914265 L 75.04130812199952 229.80707895914264" fill="none" stroke="#23DB23" stroke-width="25" />
<path d="M 75.04130812199952 229.80707895914264 L 70.17701882791606 226.6481725560555" fill="none" stroke="#1AE41A" stroke-width="26" />
<path d="M 70.17701882791606 226.6481725560555 L 65.48472026054137 223.23901809275915" fill="none" stroke="#11ED11" stroke-width="27" />
<path d="M 65.48472026054137 223.23901809275915 L 60.97727368409093 219.5889598246701" fill="none" stroke="#08F608" stroke-width="28" />
<path d="M 60.97727368409093 219.5889598246701 L 56.667033696322044 215.70800230778872" fill="none" stroke="#00FF00" stroke-width="29" />
<path d="M 56.667033696322044 215.70800230778872 L 52.42439300920276 211.46536162066943" fill="none" stroke="#F608F6" stroke-width="1" />
<path d="M 52.42439300920276 211.46536162066943 L 48.40960937104961 207.00649266780505" fill="none" stroke="#EE10EE" stroke-width="2" />
<path d="M 48.40960937104961 207.00649266780505 L 44.63368702475057 202.34361689906322" fill="none" stroke="#E519E5" stroke-width="3" />
<path d="M 44.63368702475057 202.34361689906322 L 41.10697551099572 197.48951493281353" fill="none" stroke="#DD21DD" stroke-width="4" />
<path d="M 41.10697551099572 197.48951493281353 L 37.839141300905546 192.457491525141" fill="none" stroke="#D42AD4" stroke-width="5" />
<path d="M 37.839141300905546 192.457491525141 L 34.83914130090554 187.26133910243436" fill="none" stroke="#CC32CC" stroke-width="6" />
<path d="M 34.83914130090554 187.26133910243436 L 32.11519830246825 181.91529995730417" fill="none" stroke="#C33BC3" stroke-width="7" />
<path d="M 32.11519830246825 181.91529995730417 L 29.67477844401344 176.43402721144858" fill="none" stroke="#BB43BB" stroke-width="8" />
<path d="M 29.67477844401344 176.43402721144858 L 27.52457074674163 170.83254465246537" fill="none" stroke="#B24CB2" stroke-width="9" />
<path d="M 27.52457074674163 170.83254465246537 L 25.67046878049194 165.12620555469445" fill="none" stroke="#AA54AA" stroke-width="10" />
<path d="M 25.67046878049194 165.12620555469445 L 24.11755450987681 159.33065059696006" fill="none" stroke="#A15DA1" stroke-width="11" />
<path d="M 24.11755450987681 159.33065059696006 L 22.870084364970253 153.46176499255722" fill="none" stroke="#996699" stroke-width="12" />
<path d="M 22.870084364970253 153.46176499255722 L 21.931477574728866 147.5356349489864" fill="none" stroke="#906E90" stroke-width="13" />
<path d="M 21.931477574728866 147.5356349489864 L 21.304306795122947 141.56850357677675" fill="none" stroke="#887788" stroke-width="14" />
<path d="M 21.304306795122947 141.56850357677675 L 20.99029105766529 135.5767263682493" fill="none" stroke="#7F7F7F" stroke-width="15" />
<path d="M 20.99029105766529 135.5767263682493 L 20.99029105766527 129.5767263682493" fill="none" stroke="#778877" stroke-width="16" />
<path d="M 20.99029105766527 129.5767263682493 L 21.30430679512292 123.58494915972186" fill="none" stroke="#6E906E" stroke-width="17" />
<path d="M 21.30430679512292 123.58494915972186 L 21.931477574728827 117.61781778751222" fill="none" stroke="#669966" stroke-width="18" />
<path d="M 21.931477574728827 117.61781778751222 L 22.870084364970204 111.6916877439414" fill="none" stroke="#5DA15D" stroke-width="19" />
<path d="M 22.870084364970204 111.6916877439414 L 24.11755450987675 105.82280213953857" fill="none" stroke="#55AA55" stroke-width="20" />
<path d="M 24.11755450987675 105.82280213953857 L 25.670468780491866 100.02724718180416" fill="none" stroke="#4CB24C" stroke-width="21" />
<path d="M 25.670468780491866 100.02724718180416 L 27.524570746741546 94.32090808403323" fill="none" stroke="#44BB44" stroke-width="22" />
<path d="M 27.524570746741546 94.32090808403323 L 29.674778444013345 88.71942552505003" fill="none" stroke="#3BC33B" stroke-width="23" />
<path d="M 29.674778444013345 88.71942552505003 L 32.115198302468144 83.23815277919442" fill="none" stroke="#32CC32" stroke-width="24" />
<path d="M 32.115198302468144 83.23815277919442 L 34.839141300905425 77.89211363406422" fill="none" stroke="#2AD42A" stroke-width="25" />
<path d="M 34.839141300905425 77.89211363406422 L 37.839141300905425 72.69596121135758" fill="none" stroke="#21DD21" stroke-width="26" />
<path d="M 37.839141300905425 72.69596121135758 L 41.10697551099559 67.66393780368504" fill="none" stroke="#19E519" stroke-width="27" />
<path d="M 41.10697551099559 67.66393780368504 L 44.63368702475043 62.809835837435365" fill="none" stroke="#10EE10" stroke-width="28" />
<path d="M 44.63368702475043 62.809835837435365 L 48.409609371049456 58.146960068693545" fill="none" stroke="#08F608" stroke-width="29" />
<path d="M 48.409609371049456 58.146960068693545 L 52.424393009202596 53.688091115829174" fill="none" stroke="#00FF00" stroke-width="30" />
<path d="M 52.424393009202596 53.688091115829174 L 66.56652863293354 67.83022673956012 L 66.56652863293347 39.545955492098216 L 38.28225738547157 39.54595549209824 L 52.424393009202596 53.688091115829174" fill="CCFFFF" stroke="#228b22" stroke-width="4" />
</svg>
